PathFileType	4	(X/Y/Z)	C:/ViconProjects/foot_20160225/trc/2_test01_dynamic.trc
DataRate	CameraRate	NumFrames	NumMarkers	Units	OrigDataRate	OrigDataStartFrame	OrigNumFrames
120.000000	120.000000	7	39	mm	120.000000	256	682
Frame#	Time	RCUNE			RNAVI			RMT3			LCUNE			LNAVI			LMT3			ROHEL			RIHEL			LOHEL			LIHEL			RSHAN			LSHAN			RTHI			LTHI			ROWR			RELB			RBSH			LOWR			LELB			LBSH			RHEAD			THEAD			FHEAD			T10			RTOE			RHEL			RMT1			RMT5			RANK			RKNE			LTOE			LHEL			LMT1			LMT5			LANK			LKNE			VBWT			RFWT			LFWT			
		X0	Y0	Z0	X1	Y1	Z1	X2	Y2	Z2	X3	Y3	Z3	X4	Y4	Z4	X5	Y5	Z5	X6	Y6	Z6	X7	Y7	Z7	X8	Y8	Z8	X9	Y9	Z9	X10	Y10	Z10	X11	Y11	Z11	X12	Y12	Z12	X13	Y13	Z13	X14	Y14	Z14	X15	Y15	Z15	X16	Y16	Z16	X17	Y17	Z17	X18	Y18	Z18	X19	Y19	Z19	X20	Y20	Z20	X21	Y21	Z21	X22	Y22	Z22	X23	Y23	Z23	X24	Y24	Z24	X25	Y25	Z25	X26	Y26	Z26	X27	Y27	Z27	X28	Y28	Z28	X29	Y29	Z29	X30	Y30	Z30	X31	Y31	Z31	X32	Y32	Z32	X33	Y33	Z33	X34	Y34	Z34	X35	Y35	Z35	X36	Y36	Z36	X37	Y37	Z37	X38	Y38	Z38	
256	2.133333	1761.799683	294.147675	42.956459	1749.079956	195.491425	61.328468	1660.693970	268.311890	50.594189	2429.322510	-69.723282	89.940613	2392.785645	27.979250	106.855164	2347.538086	-45.916470	44.810070	1837.047607	267.063995	47.031872	1824.696655	192.934814	47.376259	2475.594971	-40.813992	155.300995	2458.629639	29.288151	155.042374	1772.322754	206.627930	245.010208	2219.518555	5.753130	324.181152	1783.173218	218.942001	608.947510	1991.882324	-7.456360	567.400879	2160.012695	431.534729	841.932312	2127.906738	404.989441	1102.405029	1954.089844	325.659576	1375.588501	1709.822266	-121.243050	871.289856	1882.140991	-184.095428	1052.497803	1883.166138	-76.545517	1374.270996	1945.390259	133.645050	1617.011597	1827.588867	139.473633	1668.900513	1730.494263	136.695908	1569.468872	2079.827148	39.021938	1256.949097	1616.258911	249.063507	56.371208	1866.397461	223.449371	45.737461	1651.492920	232.514160	54.688480	1697.311890	308.997986	43.478710	1801.019165	284.388977	73.864380	1812.116943	276.854736	475.224823	2308.131592	-20.144560	39.671989	2490.475342	-0.623130	176.777512	2336.360840	-6.336800	47.290939	2384.532471	-76.710732	51.646130	2434.781494	-59.752602	151.393478	2153.392090	-62.539680	456.188538	2147.121582	117.897881	923.540161	1922.192383	253.040253	916.825134	1921.048096	-35.399632	900.932617
257	2.141667	1761.404297	293.777832	42.830238	1747.447876	195.022705	59.549511	1658.879517	269.479156	49.099339	2423.562256	-70.182510	95.490768	2385.350098	27.673050	110.036133	2345.272705	-46.087078	45.401070	1836.315796	266.831970	47.327560	1823.852173	192.731995	46.585930	2465.802246	-39.801071	162.717560	2448.234863	29.107401	161.767258	1769.024170	206.216110	243.986328	2205.489990	4.905210	324.221741	1774.266602	220.959686	608.397400	1977.673096	-6.028850	568.429688	2147.320557	433.276428	841.933838	2116.799316	407.691895	1102.384766	1943.613037	328.325745	1376.975464	1704.833008	-121.062363	870.889771	1874.437744	-182.121109	1054.746216	1872.824463	-73.681061	1375.830322	1935.308960	136.679688	1618.889526	1818.121948	142.437286	1670.429443	1721.322998	139.671478	1570.874878	2069.661377	41.563961	1258.273682	1612.119141	250.161041	49.139610	1865.545898	223.181992	45.957291	1650.301392	232.726639	52.750431	1696.551758	309.758667	42.920139	1797.254272	281.271667	68.524307	1804.493164	277.566101	474.785339	2308.148682	-20.273640	39.712910	2479.458008	0.162440	184.912872	2334.594727	-5.936960	46.849590	2381.152588	-76.533447	53.456089	2426.517578	-60.374111	157.404541	2137.836914	-62.828209	456.257721	2135.944336	120.034973	924.969910	1912.234131	256.014832	918.511902	1907.955200	-30.594370	902.218018
258	2.150000	1760.880859	293.379700	42.937672	1746.382202	194.223724	58.516830	1657.697266	269.717712	48.071362	2416.993408	-69.873848	102.080971	2377.145752	27.892450	114.163483	2343.254883	-45.943642	46.439892	1835.927124	266.717010	47.418209	1823.493042	192.323242	46.211540	2455.201172	-38.131641	170.381271	2437.352539	29.978939	169.596695	1765.604248	205.565460	242.196594	2191.611572	4.667900	324.445557	1766.033447	222.936203	606.357666	1962.209473	-5.563070	569.247925	2134.321777	433.662323	841.776184	2104.806152	410.138000	1102.753174	1933.614258	331.671539	1378.277954	1700.652466	-121.430092	870.363831	1867.222656	-180.398453	1056.904297	1862.937500	-70.276543	1377.806274	1925.314453	139.586746	1620.910034	1807.785767	145.346161	1672.645020	1711.349243	141.771301	1572.786499	2059.357666	44.039829	1259.845337	1611.317749	249.848267	46.831772	1865.217773	223.050339	46.270988	1649.386230	232.088867	51.053169	1695.954712	310.189545	42.704391	1797.483154	280.963287	68.579117	1797.347534	278.572266	473.589966	2307.870605	-20.744980	39.793732	2468.058105	1.623850	193.357559	2333.626953	-5.293990	47.412220	2377.791260	-76.929260	57.387890	2416.487549	-59.192032	163.395660	2121.495605	-62.236931	455.185181	2125.260986	121.916733	926.627747	1900.418945	258.531464	921.090881	1897.549561	-28.264799	903.823364
259	2.158333	1760.221680	292.710571	42.885750	1746.407227	193.485229	57.552341	1656.647461	269.142090	46.981369	2409.910889	-69.079292	110.353104	2370.027832	27.762091	119.045609	2339.512695	-46.687222	48.869850	1835.620361	266.586456	47.785549	1823.409668	192.057404	45.977718	2444.627197	-37.934448	179.925552	2426.516846	30.545349	177.192307	1763.394287	205.458054	241.469589	2176.628662	4.681110	324.675018	1757.534180	224.570938	603.570862	1946.605347	-3.701590	570.074890	2121.117920	435.500183	841.799316	2093.014893	412.853302	1103.360840	1923.266968	333.970093	1380.525879	1696.480713	-121.588516	869.741211	1859.326294	-178.513550	1060.033325	1852.944702	-68.003357	1379.915161	1915.388184	142.408936	1623.083862	1797.562866	148.234497	1674.449829	1700.304443	143.887512	1574.906616	2049.194580	47.015430	1261.544556	1610.174683	248.480774	45.048130	1864.592407	222.389877	45.868752	1648.946777	231.437408	50.210991	1695.460938	309.863342	42.825249	1796.667969	280.700256	68.737297	1791.059204	279.572693	472.890717	2305.545654	-21.873779	38.054749	2456.033936	2.302250	203.257355	2329.873291	-6.992780	49.021999	2373.479492	-77.242683	61.695950	2407.352295	-58.963242	170.444092	2104.226318	-62.149601	454.469269	2114.510254	124.093697	928.143494	1890.878784	261.673035	923.182678	1886.777588	-24.884260	906.011047
260	2.166667	1760.135742	292.452026	43.024422	1746.206421	193.406296	56.989262	1656.154785	268.705902	46.642540	2402.198730	-69.101669	118.798050	2360.649414	28.213909	125.712044	2335.812744	-46.280960	52.606091	1835.434326	266.454803	48.035370	1823.397583	191.923401	45.810520	2432.577148	-36.459389	189.577530	2415.460693	31.406870	186.869003	1761.140381	205.163071	241.368927	2160.632813	4.361860	324.243469	1749.832886	226.565735	601.372375	1930.003296	-2.390040	570.870483	2106.890625	437.232269	842.347595	2081.161133	415.804688	1103.971802	1913.601685	336.865814	1382.574219	1692.323120	-122.236343	869.298706	1853.339478	-176.852921	1062.445923	1843.484863	-65.022812	1382.182739	1905.315796	144.901855	1625.444702	1788.128174	150.643234	1676.683716	1691.447876	146.970139	1576.835327	2039.092407	49.438648	1263.215942	1609.256104	247.639679	44.579990	1864.755859	222.740387	46.212559	1648.473755	230.778809	49.800541	1694.867798	309.454681	42.892159	1794.793823	279.996002	68.928360	1784.037354	279.855438	471.644135	2303.636719	-22.056530	37.911591	2443.052734	2.764030	213.896973	2325.557861	-6.811800	51.934799	2369.060547	-76.927032	66.822563	2396.208740	-57.627289	178.605896	2085.492188	-61.218739	453.412994	2104.029785	125.914970	929.965149	1880.281616	264.440460	925.025818	1875.889893	-21.511490	907.760437
261	2.175000	1760.250366	292.416534	42.993469	1746.342896	193.280563	56.647999	1656.077271	268.779144	46.501129	2393.498047	-67.913322	127.592934	2352.110107	29.373610	131.835114	2332.068604	-45.679619	55.263939	1835.415161	266.458160	48.099529	1823.337524	191.921997	45.640671	2419.526611	-35.771679	199.793564	2402.129639	33.404240	196.395111	1758.997925	205.423553	241.347534	2145.303711	5.462720	323.850983	1743.203979	228.291031	599.725830	1912.983887	-1.957650	571.655823	2092.285645	439.284119	842.753662	2068.651611	418.328217	1104.493530	1903.634766	339.128387	1385.297607	1689.387329	-122.924744	869.106628	1846.724365	-175.366119	1065.628784	1834.365479	-62.421169	1384.923828	1895.623901	147.669617	1627.807373	1778.004883	153.115997	1679.043457	1682.467407	149.091232	1578.972900	2029.021729	51.942299	1265.237671	1609.279053	247.692490	44.493408	1864.810669	222.806839	46.205891	1648.430542	230.705978	49.529819	1694.928101	309.759735	42.690361	1794.580566	279.851440	69.136726	1778.299194	280.495667	471.841553	2300.503418	-22.162800	37.297630	2428.561279	4.801800	223.776932	2321.626465	-7.305410	54.166031	2363.924316	-75.379730	72.925362	2384.570557	-56.063660	186.281143	2066.548828	-60.083630	452.115326	2093.691406	127.877579	932.001099	1870.279541	268.043030	926.857117	1864.958130	-18.702410	910.038879
262	2.183333	1760.337524	292.430634	42.862240	1746.485718	193.187332	56.372349	1656.248413	268.005249	46.173569	2384.245850	-66.715973	137.290909	2340.429688	30.054501	137.983261	2324.350586	-46.773232	60.205780	1835.480591	266.544037	47.964218	1823.433960	191.924500	45.672722	2405.395996	-32.851330	210.180573	2387.195068	35.589119	205.220901	1757.034912	206.031982	240.688187	2127.475586	5.448950	324.032013	1736.213013	229.761581	598.067810	1895.231079	-0.878500	572.795898	2076.184570	440.731049	843.272156	2055.874268	421.110229	1105.498169	1893.852539	341.692566	1387.928345	1686.810913	-123.934021	869.091614	1840.629517	-173.581177	1068.753906	1824.258179	-60.091999	1387.077271	1886.201416	150.141739	1630.332886	1768.409302	155.493393	1681.330933	1668.651123	151.379883	1582.057739	2018.879639	54.167820	1267.389404	1609.345947	247.889999	44.253780	1864.868774	222.792313	46.181080	1648.417847	230.670807	49.288361	1695.015625	310.196991	42.462399	1794.593872	279.929688	69.120689	1772.960693	281.151123	471.993347	2297.104248	-23.277670	37.760639	2412.994873	6.832750	234.974625	2315.264404	-7.676030	57.997910	2355.344238	-75.837143	81.432762	2371.618896	-54.112259	194.155090	2046.288818	-58.866821	450.063202	2083.364502	129.866058	933.635742	1860.020630	270.648804	928.153687	1854.448242	-15.409810	912.325012
